<?xml version="1.0" standalone="no"?><!DOCTYPE svg PUBLIC "-//W3C//DTD SVG 1.1//EN" "http://www.w3.org/Graphics/SVG/1.1/DTD/svg11.dtd"><svg t="1775827676076" class="icon" viewBox="0 0 1024 1024" version="1.1" xmlns="http://www.w3.org/2000/svg" p-id="5467" xmlns:xlink="http://www.w3.org/1999/xlink" width="200" height="200"><path d="M940.6 748.4c-8.3-21.1-12.6-43.6-12.6-66.2 0.1-79.3 2.3-286.3 2.3-286.3 0-42.3-17.1-74-50.1-95.1-33.1-19.8-76.6-30.4-130.7-30.4-46.2 0-85.8 10.6-121.4 33-34.3 22.4-52.8 60.7-54.1 117.5h72.7c2.7-23.7 9.3-42.2 18.5-54.1 15.9-22.4 44.9-33 84.5-33 34.4 0 60.8 5.4 79.3 17.2 18.5 11.9 27.7 30.4 27.7 56.8 0 11.8-1.3 22.4-5.3 29-6.6 13.2-18.4 19.8-35.6 22.4l-123.2 18.7c-43.5 6.6-77.8 21.1-104.2 43.5-26.5 22.4-39.7 55.3-39.7 97.6 0 38.2 14.5 75.3 40.9 100.4 27.7 25.1 61.9 34.3 104.2 34.3 34.4 0 65.4-3.9 94.4-18.4 26.1-13 46.9-29.3 62.3-46.9 0.3 8.7-0.2 16.3 0.5 22.2 1.2 10.7 3.5 37.9 3.5 37.9l86.1-0.1z m-152-77.8c-25.1 11.9-49.5 18.5-75.9 18.5-22.6 0-42.4-5.3-58.2-18.5-15.7-13.3-25-34.3-24.8-58.1 0-29 11.8-50.2 35.6-63.4 14.5-8 35.7-13.2 63.4-17.2l46.2-6.6c14.5-1.3 29-4 43.5-7.9s26.4-7.9 35.6-14.5v36.9s-2.7 22.9-3.3 48.5c-5.1 37.3-25.8 64.1-62.1 82.3zM475.2 748.4c-8.3-21.1-12.6-43.6-12.6-66.2 0.1-79.3 2.3-286.3 2.3-286.3 0-42.3-17.1-74-50.1-95.1-33.1-19.8-76.6-30.4-130.7-30.4-46.2 0-85.8 10.6-121.4 33-34.3 22.4-52.8 60.7-54.1 117.5h72.7c2.7-23.7 9.3-42.2 18.5-54.1 15.9-22.4 44.9-33 84.5-33 34.4 0 60.8 5.4 79.3 17.2 18.5 11.9 27.7 30.4 27.7 56.8 0 11.8-1.3 22.4-5.3 29-6.6 13.2-18.4 19.8-35.6 22.4l-123.2 18.7c-43.5 6.6-77.8 21.1-104.2 43.5-26.5 22.4-39.7 55.3-39.7 97.6 0 38.2 14.5 75.3 40.9 100.4 27.7 25.1 61.9 34.3 104.2 34.3 34.4 0 65.4-3.9 94.4-18.4 26.1-13 46.9-29.3 62.3-46.9 0.3 8.7-0.2 16.3 0.5 22.2 1.2 10.7 3.5 37.9 3.5 37.9l86.1-0.1c0.1 0 0.1 0 0 0z m-151.9-77.8c-25.1 11.9-49.5 18.5-75.9 18.5-22.6 0-42.4-5.3-58.2-18.5-15.7-13.3-25-34.3-24.8-58.1 0-29 11.8-50.2 35.6-63.4 14.5-8 35.7-13.2 63.4-17.2l46.2-6.6c14.5-1.3 29-4 43.5-7.9s26.4-7.9 35.6-14.5v36.9s-2.7 22.9-3.3 48.5c-5.1 37.3-25.8 64.1-62.1 82.3z" fill="#20A63B" p-id="5468"></path></svg>