<svg width="122" height="28" viewBox="0 0 122 28" fill="none" xmlns="http://www.w3.org/2000/svg">
<g clip-path="url(#clip0_1622_207714)">
<path d="M4.48893 24.3095L12.341 24.317L10.7874 26L3.91719 25.9924L2.40151 24.3388V22.0676L4.48893 24.3095ZM23.7886 25.9974H23.7701L22.2165 24.317H23.7886V25.9974ZM21.7736 25.9932H12.7974L17.277 20.9184L21.7736 25.9932ZM32.1568 24.3388L30.6411 25.9932H30.1839V24.1878L32.1568 22.0683V24.3388ZM26.7097 19.7643C26.8801 19.6563 27.0924 19.6562 27.2629 19.7643C27.4333 19.8725 27.5347 20.072 27.5281 20.2839V23.3526C27.5283 23.5065 27.4713 23.6541 27.3698 23.763C27.2682 23.8719 27.1303 23.9333 26.9867 23.9335C26.8428 23.9337 26.7045 23.8727 26.6027 23.7639C26.5009 23.6549 26.4434 23.5066 26.4436 23.3526V20.2839C26.4369 20.0719 26.5391 19.8724 26.7097 19.7643ZM3.96771 3.0895C4.50899 11.5699 8.19199 12.6121 11.0148 12.6121H24.0067C24.6196 12.5656 25.2199 12.8155 25.6428 13.2928C26.3549 14.1532 26.3499 15.609 26.3256 16.1425C24.8485 16.4782 23.7916 17.8741 23.7911 19.4907V23.021H21.2743L17.2821 18.742L13.2495 23.021H4.98911L2.4074 20.257V18.3332H4.36684V12.7691H2.40487V4.76235L3.96771 3.0895ZM32.1644 4.76319V8.98771L29.7166 8.98267L29.7292 14.1272L32.1644 14.1506V20.2612L30.1822 22.3823V19.4949C30.1817 17.8965 29.1476 16.5107 27.6914 16.1576C27.7254 15.3748 27.6808 13.5548 26.6717 12.3292C25.9917 11.5298 25.0138 11.0971 24.0049 11.149H11.0123C9.35855 11.149 5.57443 11.1445 5.28467 2H29.5827L32.1644 4.76319ZM3.51301 17.6248H2.40487V16.4387H3.51301V17.6248ZM1.66219 16.066V17.2521H0.554065V16.066H1.66219ZM3.74288 15.5533H1.89628V13.5782H3.74288V15.5533ZM1.10813 14.5082H0V13.3222H1.10813V14.5082ZM32.1576 13.4842H31.0495V12.299H32.1576V13.4842ZM34 12.1353H32.8919V10.9502H34V12.1353ZM32.1568 11.7156H30.3102V9.74062H32.1568V11.7156ZM34 9.90262H32.8919V8.71744H34V9.90262Z" fill="black"/>
<path d="M52.6666 5.84492C54.3045 5.88269 55.9071 6.36806 57.3219 7.25508V10.7795C56.8575 10.3195 56.3348 9.93067 55.7702 9.62617C55.2483 9.33999 54.6981 9.11648 54.1305 8.96016C53.6502 8.82501 53.1563 8.75385 52.6598 8.74726C51.7039 8.70951 50.7534 8.92577 49.8942 9.37715C49.1858 9.77432 48.6094 10.3973 48.2438 11.1604C47.8528 12.0244 47.6621 12.9774 47.6871 13.9377C47.6588 14.9215 47.8459 15.8987 48.234 16.7903C48.5913 17.5587 49.1655 18.1862 49.8746 18.5833C50.7404 19.0364 51.6974 19.2531 52.6598 19.2141C52.9527 19.2137 53.2455 19.1884 53.5348 19.1389C53.8248 19.0892 54.1106 19.0146 54.3893 18.9153V14.387H57.319V20.7952C56.6063 21.2557 55.8307 21.5952 55.0211 21.8C54.2499 22.0061 53.4584 22.1136 52.6637 22.1204C51.1937 22.1597 49.7396 21.7843 48.4469 21.0315C47.2937 20.3477 46.3458 19.3249 45.7145 18.0833C45.0769 16.8106 44.7522 15.3838 44.7702 13.9387C44.7564 12.5166 45.0856 11.1147 45.7252 9.86933C46.366 8.63431 47.3173 7.61709 48.4704 6.93476C49.7563 6.18374 51.2032 5.80771 52.6666 5.84492ZM84.9616 5.8625C85.6644 5.84807 86.3673 5.90468 87.0602 6.03242C87.7086 6.14749 88.3447 6.33456 88.9577 6.58906V10.175C88.3021 9.69402 87.5795 9.32622 86.818 9.08516C86.1033 8.86054 85.3625 8.74518 84.6178 8.74336C84.0493 8.73062 83.482 8.81371 82.9371 8.98848C82.5309 9.11341 82.1562 9.33675 81.8424 9.64082C81.5993 9.87717 81.4528 10.2071 81.4352 10.5588C81.4408 10.8226 81.5324 11.076 81.694 11.2747C81.87 11.4804 82.0791 11.6503 82.3112 11.7766C82.6145 11.9388 82.9354 12.0612 83.2662 12.1399C83.3184 12.1545 83.3656 12.1682 83.4049 12.1829C83.6834 12.2538 83.9683 12.3249 84.2604 12.3958L85.1354 12.6096C85.3872 12.652 85.5692 12.6916 85.6823 12.7161C85.7953 12.7405 85.9706 12.7801 86.2096 12.8225C87.023 12.9626 87.7955 13.3025 88.4664 13.8157C89.0191 14.2446 89.4612 14.8182 89.7496 15.4817C90.0112 16.0949 90.1403 16.7643 90.1286 17.4387C90.1332 18.3529 89.8417 19.2403 89.3034 19.9485C88.7063 20.6973 87.9289 21.2557 87.0563 21.5618C85.9902 21.9499 84.8693 22.1373 83.7438 22.1165C82.8389 22.1147 81.9359 22.0189 81.0485 21.8293C80.1993 21.6559 79.3698 21.3862 78.5729 21.0266L78.5778 17.2502C78.9957 17.7213 79.4915 18.105 80.0397 18.3821C80.6126 18.6798 81.2169 18.9024 81.8395 19.0442C82.4538 19.1855 83.0804 19.2564 83.7086 19.2571C84.2925 19.2609 84.8746 19.1818 85.4391 19.0217C85.9194 18.8993 86.3683 18.6624 86.7516 18.3284C87.0654 18.0603 87.254 17.6581 87.2682 17.2278C87.2596 16.9438 87.1728 16.6691 87.0192 16.4377C86.8454 16.1914 86.6163 15.9965 86.3532 15.8713C86.0231 15.7087 85.6759 15.5896 85.319 15.5178C84.9878 15.4467 84.7425 15.3972 84.5836 15.3684C84.4248 15.3396 84.1791 15.2896 83.8473 15.219C83.0515 15.0337 82.4746 14.8912 82.1168 14.7913C81.0925 14.5479 80.1686 13.9558 79.4821 13.1038C78.8976 12.3623 78.5701 11.4257 78.5563 10.4543C78.552 9.55313 78.8448 8.67943 79.3825 7.9875C79.986 7.249 80.7666 6.70265 81.6393 6.40742C82.7102 6.02668 83.8336 5.84215 84.9616 5.8625ZM97.8706 5.8625C98.5736 5.84804 99.2776 5.90464 99.9706 6.03242C100.619 6.1474 101.255 6.33447 101.868 6.58906V10.175C101.213 9.69412 100.491 9.32633 99.7296 9.08516C99.0146 8.86051 98.2726 8.7452 97.5276 8.74336C96.9596 8.73074 96.3926 8.81384 95.8486 8.98848C95.4416 9.1133 95.0676 9.33663 94.7536 9.64082C94.5103 9.87712 94.3639 10.2071 94.3463 10.5588C94.3518 10.8226 94.4434 11.0761 94.6051 11.2747C94.7809 11.4806 94.9902 11.6506 95.2226 11.7766C95.5256 11.9389 95.8456 12.0613 96.1766 12.1399C96.2286 12.1546 96.2756 12.1682 96.3146 12.1829C96.5936 12.254 96.8796 12.3246 97.1706 12.3958L98.0466 12.6096C98.2976 12.652 98.4806 12.6916 98.5926 12.7161C98.7046 12.7405 98.8806 12.7801 99.1196 12.8225C99.9336 12.9625 100.706 13.3024 101.377 13.8157C101.93 14.2443 102.373 14.818 102.661 15.4817C102.923 16.0949 103.052 16.7643 103.04 17.4387C103.044 18.3528 102.753 19.2401 102.215 19.9485C101.618 20.6972 100.84 21.2556 99.9676 21.5618C98.9016 21.9499 97.7806 22.1373 96.6546 22.1165C95.7496 22.1146 94.8464 22.0189 93.9586 21.8293C93.1097 21.6558 92.2798 21.3862 91.483 21.0266L91.487 17.2502C91.9047 17.7216 92.4006 18.1052 92.9489 18.3821C93.5219 18.6798 94.1269 18.9023 94.7496 19.0442C95.3636 19.1854 95.9906 19.2564 96.6186 19.2571C97.2026 19.2609 97.7846 19.1819 98.3496 19.0217C98.8296 18.8993 99.2796 18.6625 99.6626 18.3284C99.9766 18.0603 100.165 17.6581 100.18 17.2278C100.171 16.9438 100.084 16.6691 99.9306 16.4377C99.7566 16.1917 99.5276 15.9969 99.2646 15.8713C98.9346 15.7088 98.5866 15.5897 98.2306 15.5178C97.8986 15.4467 97.6536 15.3972 97.4936 15.3684C97.3346 15.3396 97.0896 15.2896 96.7586 15.219C95.9626 15.0337 95.3856 14.8912 95.0266 14.7913C94.0027 14.5476 93.0789 13.9555 92.3922 13.1038C91.8079 12.3622 91.4804 11.4257 91.4664 10.4543C91.4618 9.55306 91.7547 8.67922 92.2926 7.9875C92.8962 7.24897 93.6767 6.70262 94.5495 6.40742C95.6206 6.02677 96.7426 5.84225 97.8706 5.8625ZM68.0719 16.5217L72.2682 6.07637H76.5455V21.8831H73.6207L73.6266 21.0305V10.7766L69.1901 21.884H66.9821L62.5465 10.7766V21.3079H59.6227V6.07637H63.8971L68.0719 16.5217ZM107.979 12.0374H113.845L113.846 6.07734H116.77V21.884H113.846L113.845 14.9856H107.979L107.98 20.4651L107.978 21.884H105.055V6.07734H107.98L107.979 12.0374Z" fill="black"/>
</g>
<defs>
<clipPath id="clip0_1622_207714">
<rect width="122" height="28" fill="white"/>
</clipPath>
</defs>
</svg>