<?xml version="1.0" standalone="no"?><!DOCTYPE svg PUBLIC "-//W3C//DTD SVG 1.1//EN" "http://www.w3.org/Graphics/SVG/1.1/DTD/svg11.dtd"><svg t="1775827656686" class="icon" viewBox="0 0 1024 1024" version="1.1" xmlns="http://www.w3.org/2000/svg" p-id="4790" xmlns:xlink="http://www.w3.org/1999/xlink" width="200" height="200"><path d="M512.151047 1019.774532a63.466535 63.466535 0 0 1-3.126846-14.282083V339.643146a151.525295 151.525295 0 0 0-1.014113-21.465379c0-1.014112 0-2.028225 2.112734-2.028225a12.845424 12.845424 0 0 1 6.084675 1.014112c21.465379 6.084674 42.254684 12.253858 63.297516 16.901874a6.929768 6.929768 0 0 1 6.169184 9.634068v49.015432c0 6.169184 2.028225 9.211521 8.450936 10.225634 13.35248 3.042337 26.620451 7.183296 39.888422 9.211521h1.014112c5.070562-2.028225 8.450937 1.014112 12.253858 3.042337h1.014113c9.211521 0 1.014112-4.05645 3.042337-6.169184-1.014112-14.282083 0-27.550054 0-42.254683 0-3.042337 0-7.183296 3.042337-9.211521h2.112734l63.297516 18.423042c4.05645 1.014112 4.05645 4.05645 4.05645 7.098787v48.00132c0 5.155071 1.014112 8.450937 6.169183 9.211521 12.253858 3.042337 25.35281 6.169184 37.775687 10.225634h1.014113c6.084674-2.028225 11.239746 3.042337 17.32442 2.028224a2.281753 2.281753 0 0 0 2.112734-2.028224 152.116861 152.116861 0 0 0 1.014113-21.46538 231.471156 231.471156 0 0 0 0-26.535941v-2.028225c0-3.042337 1.014112-2.028225 3.042337-2.028225l62.283403 18.338533c5.070562 2.028225 4.05645 5.155071 4.05645 9.211521 0 52.05777 1.014112 104.20005 1.014112 156.25782 0 64.311628 0 128.623257 1.098622 193.019394a51.719733 51.719733 0 0 1-5.155071 21.465379 298.740612 298.740612 0 0 1-69.4667 86.79112c-50.70562 45.973096-110.284724 77.579599-173.58224 104.11554-29.578278 12.253858-59.156557 20.451267-88.819344 31.691013a8.450937 8.450937 0 0 1-3.126847 1.014112h-1.014112a14.451102 14.451102 0 0 1-6.084675 2.028225" fill="#20A43A" p-id="4791"></path><path d="M508.010088 317.163654a4.394487 4.394487 0 0 1 4.140959 4.05645v700.582652l-2.028225-1.014112s-40.902534-13.267971-61.3538-20.451267c-70.396303-25.35281-136.820665-57.128332-194.371544-105.129652a319.276389 319.276389 0 0 1-80.621936-92.960304 66.677891 66.677891 0 0 1-9.211521-33.803747c1.014112-114.341174 1.014112-228.766856 1.014112-343.10803 0-7.183296 2.028225-9.211521 8.450937-11.239746 20.366757-5.155071 39.803912-11.239746 60.255179-17.408929 3.042337 3.126847 2.028225 7.183296 2.028224 10.225633v33.803747c0 8.450937 1.014112 9.211521 9.211521 7.183296a14.028555 14.028555 0 0 1 9.127012 0c13.267971-3.126847 26.620451-7.183296 40.902534-10.225633 5.070562-1.014112 5.070562-4.140959 5.070562-8.450937v-48.846414c0-3.042337 0-6.084674 4.056449-7.183296l64.480647-18.169514c3.042337 3.042337 2.028225 7.183296 2.028225 11.239746a321.896179 321.896179 0 0 0 1.014113 43.94487c5.070562 4.05645 9.211521-1.098622 14.282083-1.098621 2.028225-1.014112 4.140959 0 7.183296 0 12.253858-3.042337 24.507716-7.098787 36.761574-10.141124 6.084674-1.014112 8.450937-4.140959 8.450937-10.225634-1.014112-16.394817 0-32.705125 0-50.029545 0-3.126847 0-6.169184 4.05645-7.183296 21.465379-3.042337 43.944871-9.211521 65.32574-14.282083z m0 0" fill="#18842D" p-id="4792"></path><path d="M512.151047 158.87761c10.225633 1.014112 17.32442 5.070562 18.338533 16.310308 1.014112 9.211521 2.028225 21.465379 8.450937 27.550053s18.338533 6.169184 27.550053 9.211521c115.439795 32.705125 230.795081 65.41025 346.488405 97.016754a12.676405 12.676405 0 0 0 15.296195-3.042337l1.014113-1.014113a48.339358 48.339358 0 0 1 57.212841-12.253858c1.014112 2.028225-2.028225 3.042337-3.042337 5.070562-18.423042 24.507716-36.761575 48.00132-55.184617 72.509037-3.042337 5.155071-6.084674 6.169184-12.253858 4.140959-131.750103-38.874309-264.514319-76.649996-396.264422-114.425683a28.310638 28.310638 0 0 0-13.26797-1.014112 111.298836 111.298836 0 0 0 2.028225-31.691013v-55.100107c1.014112-6.169184 1.014112-10.225633 4.140958-13.267971z m0 0" fill="#20A43A" p-id="4793"></path><path d="M512.151047 158.87761v88.819345c0 5.070562 0 8.450937-5.155071 10.225633-36.761575 10.225633-72.509037 21.465379-108.256499 31.691013-97.016753 27.550054-194.371544 56.11422-290.036148 83.664273-3.042337 1.098622-7.098787 3.126847-10.225633-1.014112-20.366757-26.535941-40.818024-53.071882-62.114385-80.621936l31.521994-4.225469a9.127012 9.127012 0 0 1 5.070562 1.014113 16.394817 16.394817 0 0 1 4.140959 3.126846c16.310308 16.901873 34.64884 16.901873 57.128332 11.239746 114.425683-33.803747 229.780969-65.41025 344.206652-97.016753 5.070562-2.112734 9.211521-4.140959 10.225633-10.225634s4.05645-14.282083 5.070562-21.465379c1.014112-11.239746 8.450937-15.296195 18.423042-15.296195z m0 0" fill="#18842D" p-id="4794"></path><path d="M512.151047 1.605678c16.310308-1.014112 16.310308-1.014112 19.352645 14.282083 4.140959 19.352645 7.183296 39.803912 11.239746 59.156557a8.450937 8.450937 0 0 0 7.183296 8.450937c107.242387 32.705125 214.484773 64.396138 321.727161 97.016753a7.521334 7.521334 0 0 0 9.127011-2.028225l0.676075-0.929603c17.40893-15.296195 36.761575-23.493604 60.255179-12.253858 0 2.028225-3.042337 3.042337-4.05645 4.140959-20.451267 20.366757-42.254684 39.803912-61.269291 60.255179a14.113064 14.113064 0 0 1-16.310308 4.056449c-113.411571-31.691013-227.752744-63.297516-341.164314-94.988528-3.042337-1.014112-6.084674-1.014112-8.450937-2.028225-1.014112-3.042337-2.112734-6.169184-1.014112-8.450937V14.873649a12.507386 12.507386 0 0 1 2.704299-13.267971z m0 0" fill="#20A43A" p-id="4795"></path><path d="M512.151047 1.605678v125.242882a18.592061 18.592061 0 0 1-2.028225 10.225633c-56.198729 15.634233-111.383346 32.02905-167.497565 47.325246-59.156557 16.310308-118.313114 32.705125-177.469671 50.029545a16.141289 16.141289 0 0 1-18.423042-5.070562c-20.366757-22.479492-41.832137-44.958983-61.269291-66.424362 6.169184-1.014112 16.394817-2.028225 26.535942-4.05645a9.972105 9.972105 0 0 1 9.211521 4.05645c17.40893 17.32442 34.73335 16.310308 57.212841 9.211521 97.016753-30.6769 196.061731-59.156557 293.078485-88.903855a12.929933 12.929933 0 0 0 10.225633-11.239745c2.535281-20.366757 7.94388-39.803912 10.986218-60.17067 1.014112-9.211521 4.05645-13.35248 14.282083-11.239745a9.465049 9.465049 0 0 0 5.155071 1.014112z m0 0" fill="#18842D" p-id="4796"></path><path d="M256.087665 449.92787a84.509367 84.509367 0 0 1-17.32442 5.070562c-5.070562 1.014112-4.05645-4.05645-4.05645-6.084674V398.884212h1.014113c20.366757 3.042337 20.366757 3.042337 20.366757 23.747132a248.880086 248.880086 0 0 0 0 27.550054z m0 0" fill="#20A43A" p-id="4797"></path><path d="M788.919224 397.8701v3.042337a481.111826 481.111826 0 0 1 0 54.085995c-7.183296-1.014112-14.366592-4.05645-21.465379-5.070562v-38.7898c0-6.169184 2.028225-9.211521 8.450937-10.225633s9.127012-4.140959 13.26797-3.042337z m-142.989849 16.901873l-12.253858-3.042337v-42.508212c0-6.084674 2.028225-9.211521 8.450937-9.211521 4.140959 0 8.450937-3.042337 13.35248-2.028224a81.213502 81.213502 0 0 0-2.197244 22.394982v31.691013c1.014112 4.05645 1.014112 5.070562-7.098787 3.042337z m0 0" fill="#18852D" p-id="4798"></path><path d="M386.485619 413.166295c2.028225 0 5.155071-1.014112 7.183296-1.014112-5.155071 0-3.042337-4.140959-3.042337-6.169184v-37.775687c0-3.042337 1.014112-6.084674-3.126847-6.084674a50.029545 50.029545 0 0 0-16.901873-3.126847v51.128167c0 1.014112 0 8.450937 2.028224 9.127012h3.042338a3.97194 3.97194 0 0 0 3.126846-1.014113" fill="#20A53A" p-id="4799"></path><path d="M788.919224 454.998432v-54.085995c3.042337 2.028225 2.028225 6.084674 2.028225 9.211521 1.014112 14.282083-1.014112 29.578278 1.014112 43.860362 0 1.014112-1.014112 1.014112-1.014112 2.028224a3.549393 3.549393 0 0 0-2.028225-1.014112z m0 0" fill="#24A53E" p-id="4800"></path></svg>